<svg width="20" height="20" viewBox="0 0 20 20" fill="none" xmlns="http://www.w3.org/2000/svg">
<g clip-path="url(#clip0_7_201)">
<path d="M19.7396 6.0625L14.7396 1.37153C14.4054 1.05361 13.8781 1.07097 13.5622 1.40516C13.2453 1.73937 13.2605 2.26662 13.5958 2.58259L17.0715 5.86593H11.3979C9.98264 5.77084 8.67014 6.35417 7.67361 7.34028C6.66667 8.34028 6.11111 9.67708 6.11111 11.1111V14.1354C6.11111 14.5955 6.48438 14.9375 6.94444 14.9375C7.40451 14.9375 7.77778 14.6285 7.77778 14.1667V11.1111C7.77778 10.126 8.15764 9.20695 8.84653 8.52431C9.52431 7.85417 10.3785 7.46528 11.3889 7.5H17.0694L13.5938 10.7833C13.2585 11.0991 13.2434 11.6264 13.5601 11.9608C13.724 12.1031 13.9441 12.2223 14.1657 12.2223C14.3707 12.2223 14.5768 12.1474 14.7375 11.9944L19.7375 7.30344C19.9062 7.11459 20 6.89583 20 6.66667C20 6.4375 19.9063 6.21875 19.7396 6.0625ZM12.5 14.4444C12.0399 14.4444 11.6667 14.8177 11.6667 15.2465V16.8819C11.6667 17.0349 11.5419 17.1285 11.3889 17.1285H1.94444C1.79146 17.1285 1.66667 17.0037 1.66667 16.8819V7.5C1.66667 7.34702 1.79146 7.25347 1.94444 7.25347H3.88889C4.34896 7.25347 4.72222 6.88021 4.72222 6.45139C4.72222 6.02257 4.34896 5.64931 3.88889 5.64931H1.94444C0.872222 5.64931 0 6.52153 0 7.5625V16.9757C0 18.0174 0.872569 18.8889 1.94444 18.8889H11.3889C12.4611 18.8889 13.3333 18.0167 13.3333 16.9757V15.3403C13.3333 14.8194 12.9618 14.4444 12.5 14.4444Z" fill="#030303"/>
</g>
<defs>
<clipPath id="clip0_7_201">
<rect width="20" height="20" fill="white"/>
</clipPath>
</defs>
</svg>
