<svg width="63" height="64" viewBox="0 0 63 64" fill="none" xmlns="http://www.w3.org/2000/svg">
<g clip-path="url(#clip0_7_61)">
<path d="M39.375 32C38.6788 32 38.0112 32.2766 37.5189 32.7688C37.0266 33.2611 36.75 33.9288 36.75 34.625C36.75 35.3212 37.0266 35.9889 37.5189 36.4812C38.0112 36.9734 38.6788 37.25 39.375 37.25C40.0712 37.25 40.7389 36.9734 41.2312 36.4812C41.7235 35.9889 42 35.3212 42 34.625C42 33.9288 41.7235 33.2611 41.2312 32.7688C40.7389 32.2766 40.0712 32 39.375 32ZM23.625 32C22.9288 32 22.2612 32.2766 21.7689 32.7688C21.2766 33.2611 21 33.9288 21 34.625C21 35.3212 21.2766 35.9889 21.7689 36.4812C22.2612 36.9734 22.9288 37.25 23.625 37.25C24.3212 37.25 24.9889 36.9734 25.4812 36.4812C25.9735 35.9889 26.25 35.3212 26.25 34.625C26.25 33.9288 25.9735 33.2611 25.4812 32.7688C24.9889 32.2766 24.3212 32 23.625 32ZM21.8663 20.1875L20.1338 25.4375H42.8663L41.1338 20.1875H21.8663Z" fill="#030303"/>
<path d="M52.5 5.75H10.5C7.6125 5.75 5.25 8.1125 5.25 11V53C5.25 55.8875 7.6125 58.25 10.5 58.25H52.5C55.3875 58.25 57.75 55.8875 57.75 53V11C57.75 8.1125 55.3875 5.75 52.5 5.75ZM49.875 46.9363C49.875 48.1175 48.9562 49.0625 47.8275 49.0625H46.6725C45.5175 49.0625 44.625 48.1175 44.625 46.9363V43.8125H18.375V46.9363C18.375 48.1175 17.4562 49.0625 16.3275 49.0625H15.1725C14.0438 49.0625 13.125 48.1175 13.125 46.9363V29.8737C15.2775 23.39 16.6425 19.295 17.22 17.5625C17.3512 17.1425 17.535 16.8012 17.7188 16.5125C17.7712 16.46 17.7975 16.4075 17.85 16.355C18.8475 14.9637 20.265 14.9375 20.265 14.9375H42.735C42.735 14.9375 44.1525 14.9638 45.15 16.3288C45.2025 16.4075 45.2287 16.46 45.2812 16.5125C45.465 16.8012 45.6488 17.1425 45.78 17.5625C46.3575 19.295 47.7225 23.4162 49.875 29.8737V46.9363Z" fill="#030303"/>
</g>
<defs>
<clipPath id="clip0_7_61">
<rect width="63" height="63" fill="white" transform="translate(0 0.5)"/>
</clipPath>
</defs>
</svg>
