<svg width="62" height="62" viewBox="0 0 62 62" fill="none" xmlns="http://www.w3.org/2000/svg">
<g clip-path="url(#clip0_7_47)">
<path d="M44.9758 17.0242L38.75 14.2083L44.9758 11.3925L47.7917 5.16666L50.6075 11.3925L56.8333 14.2083L50.6075 17.0242L47.7917 23.25L44.9758 17.0242ZM54.9733 32.86L52.9583 28.4167L50.9433 32.86L46.5 34.875L50.9433 36.89L52.9583 41.3333L54.9733 36.89L59.4167 34.875L54.9733 32.86ZM41.9533 37.1225L46.965 40.92L40.5067 52.1058L34.72 49.6775C34.2033 50.0133 33.635 50.3492 33.0667 50.6333L32.2917 56.8333H19.375L18.6 50.6075C18.0317 50.3233 17.4892 50.0133 16.9467 49.6517L11.16 52.08L4.70166 40.8942L9.71333 37.0967C9.68749 36.8125 9.68749 36.4767 9.68749 36.1667C9.68749 35.8567 9.68749 35.5208 9.71333 35.2108L4.70166 31.4133L11.16 20.2275L16.9467 22.6558C17.4633 22.32 18.0317 21.9842 18.6 21.7L19.375 15.5H32.2917L33.0667 21.7258C33.635 22.01 34.1775 22.32 34.72 22.6817L40.5067 20.2533L46.965 31.4392L41.9533 35.2367C41.9792 35.5467 41.9792 35.8567 41.9792 36.1925C41.9792 36.5283 41.9792 36.8125 41.9533 37.1225ZM33.5833 36.1667C33.5833 31.8783 30.1217 28.4167 25.8333 28.4167C21.545 28.4167 18.0833 31.8783 18.0833 36.1667C18.0833 40.455 21.545 43.9167 25.8333 43.9167C30.1217 43.9167 33.5833 40.455 33.5833 36.1667Z" fill="#030303"/>
</g>
<defs>
<clipPath id="clip0_7_47">
<rect width="62" height="62" fill="white"/>
</clipPath>
</defs>
</svg>
